<svg width="184" height="276" viewBox="0 0 184 276" fill="none" xmlns="http://www.w3.org/2000/svg">
  <rect width="184" height="276" rx="16" fill="#B84308"/>
  <circle cx="90" cy="90" r="42" fill="#0B0B0B"/>
  <path d="M44 267C50 210 68 139 95 129C114 122 145 142 160 267H44Z" fill="#080808"/>
  <path d="M120 60C110 55 88 54 75 67C61 81 57 108 69 123C80 137 102 138 117 128C130 119 139 106 141 89C143 74 132 65 120 60Z" fill="#141414"/>
  <path d="M131 85C123 77 105 73 92 74C87 75 79 78 72 85C87 84 95 86 107 89C117 92 123 95 132 101C135 96 135 90 131 85Z" fill="#1E1E1E"/>
  <path d="M58 99C69 89 86 80 104 81C84 70 68 80 58 99Z" fill="#202020" opacity="0.8"/>
</svg>